<svg width="27" height="29" viewBox="0 0 27 29" fill="none" xmlns="http://www.w3.org/2000/svg">
<path d="M5.57622 28.346C4.70207 28.346 3.95374 28.0414 3.33123 27.4321C2.70873 26.8229 2.39748 26.0905 2.39748 25.2349V5.01268C1.94716 5.01268 1.56968 4.8636 1.26505 4.56545C0.96042 4.2673 0.808105 3.89786 0.808105 3.45712C0.808105 3.01638 0.96042 2.64693 1.26505 2.34879C1.56968 2.05064 1.94716 1.90156 2.39748 1.90156H8.75496C8.75496 1.46082 8.90728 1.09138 9.21191 0.793231C9.51654 0.495082 9.89401 0.346008 10.3443 0.346008H16.7018C17.1521 0.346008 17.5296 0.495082 17.8343 0.793231C18.1389 1.09138 18.2912 1.46082 18.2912 1.90156H24.6487C25.099 1.90156 25.4765 2.05064 25.7811 2.34879C26.0857 2.64693 26.2381 3.01638 26.2381 3.45712C26.2381 3.89786 26.0857 4.2673 25.7811 4.56545C25.4765 4.8636 25.099 5.01268 24.6487 5.01268V25.2349C24.6487 26.0905 24.3374 26.8229 23.7149 27.4321C23.0924 28.0414 22.3441 28.346 21.4699 28.346H5.57622ZM21.4699 5.01268H5.57622V25.2349H21.4699V5.01268ZM13.5231 17.3016L16.5429 20.2571C16.8343 20.5423 17.2051 20.6849 17.6554 20.6849C18.1058 20.6849 18.4766 20.5423 18.768 20.2571C19.0594 19.9719 19.2051 19.609 19.2051 19.1682C19.2051 18.7275 19.0594 18.3645 18.768 18.0793L15.7482 15.1238L18.768 12.1682C19.0594 11.883 19.2051 11.5201 19.2051 11.0793C19.2051 10.6386 19.0594 10.2756 18.768 9.99045C18.4766 9.70527 18.1058 9.56268 17.6554 9.56268C17.2051 9.56268 16.8343 9.70527 16.5429 9.99045L13.5231 12.946L10.5033 9.99045C10.2119 9.70527 9.84104 9.56268 9.39071 9.56268C8.94039 9.56268 8.56954 9.70527 8.27815 9.99045C7.98677 10.2756 7.84108 10.6386 7.84108 11.0793C7.84108 11.5201 7.98677 11.883 8.27815 12.1682L11.298 15.1238L8.27815 18.0793C7.98677 18.3645 7.84108 18.7275 7.84108 19.1682C7.84108 19.609 7.98677 19.9719 8.27815 20.2571C8.56954 20.5423 8.94039 20.6849 9.39071 20.6849C9.84104 20.6849 10.2119 20.5423 10.5033 20.2571L13.5231 17.3016Z" fill="white"/>
</svg>
